<svg width="13" height="22" viewBox="0 0 13 22" fill="none" xmlns="http://www.w3.org/2000/svg">
<path opacity="0.7" d="M5.48 21.088H7.04V19.12C10.28 18.832 12.056 16.576 12.056 14.248C12.056 10.864 9.44 10.216 7.04 9.64V4.456C8.192 4.744 8.864 5.632 8.96 6.592H11.888C11.672 3.88 9.8 2.368 7.04 2.128V0.183999H5.48V2.152C2.504 2.416 0.44 4.264 0.44 6.952C0.44 10.336 3.08 11.008 5.48 11.608V16.888C4.136 16.648 3.464 15.76 3.368 14.56H0.44C0.44 17.272 2.552 18.88 5.48 19.144V21.088ZM9.296 14.392C9.296 15.64 8.48 16.648 7.04 16.888V12.016C8.336 12.424 9.296 13.024 9.296 14.392ZM3.224 6.808C3.224 5.344 4.16 4.552 5.48 4.384V9.232C4.184 8.824 3.224 8.2 3.224 6.808Z" fill="#2F294D"/>
</svg>
