<svg width="4" height="8" viewBox="0 0 4 8" fill="none" xmlns="http://www.w3.org/2000/svg">
<path d="M2.53 8C2.398 8 2.288 7.956 2.2 7.868C2.112 7.78 2.068 7.67367 2.068 7.549V1.29L2.2 1.444L0.957 2.302C0.883667 2.35333 0.799333 2.379 0.704 2.379C0.579333 2.379 0.473 2.335 0.385 2.247C0.297 2.15167 0.253 2.04533 0.253 1.928C0.253 1.76667 0.33 1.63833 0.484 1.543L2.233 0.388C2.29167 0.351333 2.35033 0.325666 2.409 0.310999C2.46767 0.296333 2.52633 0.292666 2.585 0.299999C2.717 0.299999 2.81967 0.344 2.893 0.432C2.97367 0.512666 3.014 0.615333 3.014 0.74V7.549C3.014 7.67367 2.96633 7.78 2.871 7.868C2.783 7.956 2.66933 8 2.53 8Z" fill="white"/>
</svg>
