<svg width="6" height="8" viewBox="0 0 6 8" fill="none" xmlns="http://www.w3.org/2000/svg">
<path d="M4.125 8C4.00033 8 3.894 7.956 3.806 7.868C3.72533 7.78 3.685 7.67367 3.685 7.549V1.532L3.861 1.598L1.232 5.03L1.188 4.898H5.302C5.41933 4.898 5.51833 4.93833 5.599 5.019C5.67967 5.09967 5.72 5.19867 5.72 5.316C5.72 5.426 5.67967 5.52133 5.599 5.602C5.51833 5.67533 5.41933 5.712 5.302 5.712H0.583C0.473 5.712 0.370333 5.668 0.275 5.58C0.187 5.492 0.143 5.38933 0.143 5.272C0.143 5.162 0.179667 5.06667 0.253 4.986L3.762 0.476C3.81333 0.41 3.872 0.366 3.938 0.344C4.004 0.314666 4.07 0.299999 4.136 0.299999C4.26067 0.299999 4.36333 0.344 4.444 0.432C4.52467 0.512666 4.565 0.615333 4.565 0.74V7.549C4.565 7.67367 4.521 7.78 4.433 7.868C4.35233 7.956 4.24967 8 4.125 8Z" fill="white"/>
</svg>
